# xmcd
#
# Track frame offsets: 
#        150
#        17357
#        35953
#        52571
#        71575
#        88862
#        106550
#        124066
#        145786
#        165318
#        183138
#        203842
#
# Disc length: 2966 seconds
#
# Revision: 1
# Processed by: cddbd v1.5.2PL0 Copyright (c) Steve Scherf et al.
# Submitted via: ExactAudioCopy v1.0b3
#
DISCID=8f0b940c
DTITLE=Keyshia Cole - Woman to Woman
DYEAR=2012
DGENRE=R&B
TTITLE0=Enough of No Love (feat. Lil Wayne)
TTITLE1=Zero (feat. Meek Mill)
TTITLE2=Missing Me
TTITLE3=Trust and Believe
TTITLE4=Get It Right
TTITLE5=Woman to Woman (feat. Ashanti)
TTITLE6=Wonderland (feat. Elijah Blake)
TTITLE7=I Choose You
TTITLE8=Stubborn
TTITLE9=Hey Sexy
TTITLE10=Next Move (feat. Robin Thicke)
TTITLE11=Signature
EXTD=
EXTT0=
EXTT1=
EXTT2=
EXTT3=
EXTT4=
EXTT5=
EXTT6=
EXTT7=
EXTT8=
EXTT9=
EXTT10=
EXTT11=
PLAYORDER=
